<?xml version="1.0" encoding="UTF-8" standalone="no"?>
<!-- Created with Inkscape (http://www.inkscape.org/) -->

<svg
   width="51.256313mm"
   height="8.0961752mm"
   viewBox="0 0 51.256313 8.0961752"
   version="1.1"
   id="svg5"
   inkscape:version="1.1.1 (3bf5ae0d25, 2021-09-20)"
   sodipodi:docname="autogramLogo.svg"
   xmlns:inkscape="http://www.inkscape.org/namespaces/inkscape"
   xmlns:sodipodi="http://sodipodi.sourceforge.net/DTD/sodipodi-0.dtd"
   xmlns="http://www.w3.org/2000/svg"
   xmlns:svg="http://www.w3.org/2000/svg">
  <sodipodi:namedview
     id="namedview7"
     pagecolor="#ffffff"
     bordercolor="#666666"
     borderopacity="1.0"
     inkscape:pageshadow="2"
     inkscape:pageopacity="0.0"
     inkscape:pagecheckerboard="0"
     inkscape:document-units="mm"
     showgrid="false"
     inkscape:zoom="5.12"
     inkscape:cx="99.707032"
     inkscape:cy="18.457031"
     inkscape:window-width="1920"
     inkscape:window-height="1009"
     inkscape:window-x="-8"
     inkscape:window-y="-8"
     inkscape:window-maximized="1"
     inkscape:current-layer="layer1"
     fit-margin-top="0"
     fit-margin-left="0"
     fit-margin-right="0"
     fit-margin-bottom="0" />
  <defs
     id="defs2" />
  <g
     inkscape:label="Layer 1"
     inkscape:groupmode="layer"
     id="layer1"
     transform="translate(-11.894418,-139.71375)">
    <text
       xml:space="preserve"
       style="font-style:normal;font-weight:normal;font-size:10.5833px;line-height:1.25;font-family:sans-serif;fill:#000000;fill-opacity:1;stroke:none;stroke-width:0.264583"
       x="11.894418"
       y="147.41869"
       id="text957"><tspan
         sodipodi:role="line"
         id="tspan955"
         style="font-style:normal;font-variant:normal;font-weight:bold;font-stretch:normal;font-family:Arial;-inkscape-font-specification:'Arial Bold';stroke-width:0.264583"
         x="11.894418"
         y="147.41869">Aut  <tspan
   style="font-size:2.82222px"
   id="tspan64638"> </tspan>Gram</tspan></text>
    <path
       d="m 32.934927,141.93261 c 0.86233,0 0.964464,0.004 1.305007,0.0188 0.314876,0.0144 0.485879,0.067 0.599693,0.11121 0.150733,0.0586 0.258329,0.12858 0.371335,0.24158 0.113005,0.11301 0.183002,0.2206 0.241574,0.37134 0.04422,0.11381 0.09683,0.28481 0.111212,0.59969 0.01553,0.34054 0.01882,0.44267 0.01882,1.30501 0,0.86233 -0.0032,0.96446 -0.01882,1.305 -0.01437,0.3149 -0.06699,0.48588 -0.111212,0.59969 -0.05859,0.15075 -0.128569,0.25833 -0.241574,0.37135 -0.113006,0.113 -0.220602,0.183 -0.371335,0.24157 -0.113814,0.0442 -0.284817,0.0968 -0.599693,0.11121 -0.340492,0.0155 -0.442625,0.0188 -1.305007,0.0188 -0.862381,0 -0.964516,-0.004 -1.305007,-0.0188 -0.314878,-0.0144 -0.485878,-0.067 -0.599679,-0.11121 -0.150747,-0.0585 -0.258342,-0.12857 -0.371349,-0.24157 -0.113004,-0.11302 -0.183001,-0.2206 -0.241573,-0.37135 -0.04422,-0.11381 -0.09683,-0.28479 -0.111213,-0.59968 -0.01553,-0.34055 -0.01882,-0.44268 -0.01882,-1.30501 0,-0.86234 0.0032,-0.96447 0.01882,-1.305 0.01438,-0.31489 0.06698,-0.48589 0.111213,-0.5997 0.05858,-0.15074 0.128569,-0.25833 0.241573,-0.37134 0.113007,-0.113 0.220602,-0.18299 0.371349,-0.24158 0.113801,-0.0442 0.284801,-0.0967 0.599666,-0.11121 0.340556,-0.0155 0.442691,-0.0188 1.30502,-0.0188 m 0,-0.58191 c -0.877098,0 -0.987066,0.004 -1.33153,0.0195 -0.34376,0.0156 -0.578515,0.0702 -0.78395,0.15011 -0.212371,0.0826 -0.392475,0.19297 -0.572014,0.37251 -0.179541,0.17953 -0.28997,0.35964 -0.372503,0.57202 -0.07984,0.20543 -0.134428,0.44019 -0.150119,0.78394 -0.01572,0.34446 -0.01944,0.45444 -0.01944,1.33154 0,0.8771 0.0038,0.98707 0.01944,1.33152 0.01568,0.34376 0.07027,0.57852 0.150119,0.78396 0.08254,0.21235 0.192962,0.39246 0.372503,0.57201 0.179539,0.17954 0.359643,0.28996 0.572014,0.37249 0.205435,0.0799 0.44019,0.13445 0.78395,0.15013 0.344464,0.0156 0.454432,0.0195 1.33153,0.0195 0.877098,0 0.987079,-0.004 1.331531,-0.0195 0.343759,-0.0158 0.578514,-0.0702 0.78395,-0.15013 0.21237,-0.0826 0.392475,-0.19295 0.572014,-0.37249 0.17954,-0.17955 0.28997,-0.35965 0.372503,-0.57201 0.07984,-0.20544 0.134427,-0.4402 0.150119,-0.78396 0.01572,-0.34445 0.01943,-0.45442 0.01943,-1.33152 0,-0.8771 -0.0038,-0.98708 -0.01943,-1.33154 -0.01568,-0.34375 -0.07028,-0.57851 -0.150119,-0.78394 -0.08254,-0.21238 -0.192963,-0.39249 -0.372503,-0.57202 -0.179539,-0.17954 -0.359644,-0.28997 -0.572014,-0.37251 -0.205436,-0.0799 -0.440191,-0.13441 -0.78395,-0.15011 -0.344452,-0.0158 -0.454433,-0.0195 -1.331531,-0.0195 z m 0,1.57114 c -0.915916,0 -1.65842,0.7425 -1.65842,1.65841 0,0.91592 0.742504,1.65842 1.65842,1.65842 0.915916,0 1.658421,-0.7425 1.658421,-1.65842 0,-0.91591 -0.742505,-1.65841 -1.658421,-1.65841 z m 0,2.73494 c -0.594539,0 -1.07652,-0.48199 -1.07652,-1.07653 0,-0.59455 0.481981,-1.07653 1.07652,-1.07653 0.594539,0 1.076521,0.48198 1.076521,1.07653 0,0.59454 -0.481982,1.07653 -1.076521,1.07653 z m 2.111481,-2.80047 c 0,0.21404 -0.173502,0.38756 -0.38754,0.38756 -0.214036,0 -0.387552,-0.17352 -0.387552,-0.38756 0,-0.21403 0.173516,-0.38754 0.387552,-0.38754 0.214038,0 0.38754,0.17351 0.38754,0.38754 z"
       fill="#0a0a08"
       id="path35180"
       style="stroke-width:0.0252307" />
  </g>
</svg>
